<?xml version="1.0" encoding="UTF-8"?>
<svg width="24px" height="24px" viewBox="0 0 24 24" version="1.1" xmlns="http://www.w3.org/2000/svg" xmlns:xlink="http://www.w3.org/1999/xlink">
    <!-- Generator: Sketch 61.2 (89653) - https://sketch.com -->
    <title>Artboard</title>
    <desc>Created with Sketch.</desc>
    <g id="Artboard" stroke="none" stroke-width="1" fill="none" fill-rule="evenodd">
        <g id="linkedin-(3)">
            <rect id="Rectangle" x="0" y="0" width="24" height="24"></rect>
            <path d="M20.173,20.147 L16.619,20.147 L16.619,14.578 C16.619,13.25 16.592,11.541 14.767,11.541 C12.914,11.541 12.631,12.986 12.631,14.48 L12.631,20.147 L9.077,20.147 L9.077,8.695 L12.491,8.695 L12.491,10.256 L12.537,10.256 C13.014,9.356 14.174,8.406 15.907,8.406 C19.508,8.406 20.174,10.776 20.174,13.861 L20.174,20.147 L20.173,20.147 Z M5.063,7.128 C3.919,7.128 3,6.202 3,5.063 C3,3.925 3.92,3 5.063,3 C6.203,3 7.127,3.925 7.127,5.063 C7.127,6.202 6.202,7.128 5.063,7.128 Z M6.845,20.147 L3.281,20.147 L3.281,8.695 L6.845,8.695 L6.845,20.147 Z" id="Shape" fill="#FFFFFF" fill-rule="nonzero"></path>
        </g>
    </g>
</svg>